<!DOCTYPE svg PUBLIC "-//W3C//DTD SVG 1.1//EN" "http://www.w3.org/Graphics/SVG/1.1/DTD/svg11.dtd">
<!-- Uploaded to: SVG Repo, www.svgrepo.com, Transformed by: SVG Repo Mixer Tools -->
<svg fill="#0f0bef" width="800px" height="800px" viewBox="0 0 64 64" data-name="Magic Mat" id="Magic_Mat" xmlns="http://www.w3.org/2000/svg" stroke="#0f0bef">
<g id="SVGRepo_bgCarrier" stroke-width="0"/>
<g id="SVGRepo_tracerCarrier" stroke-linecap="round" stroke-linejoin="round"/>
<g id="SVGRepo_iconCarrier">
<path d="M53,14.5a4,4,0,0,0-4,4v1.31l-2.65.62a21.74,21.74,0,0,1-9.86,0l-5.89-1.38A29.48,29.48,0,0,0,18,18.83l-3,.58v-.89a4,4,0,0,0-8,0V44.08H7A4,4,0,0,0,12,48l7.2-1.08a26.41,26.41,0,0,1,10,.4l5.88,1.38a31.69,31.69,0,0,0,7.17.83A31.09,31.09,0,0,0,47.63,49l5.52-.95a4,4,0,0,0,3.85-4h0V18.52A4,4,0,0,0,53,14.5Zm0,2a2,2,0,0,1,2,2V40.63a3.88,3.88,0,0,0-4,0V18.52A2,2,0,0,1,53,16.5ZM11,16.5a2,2,0,0,1,2,2V40.63a3.88,3.88,0,0,0-4.05,0V18.52A2,2,0,0,1,11,16.5ZM9,44.08A2,2,0,1,1,11.63,46l-.65.1A2,2,0,0,1,9,44.08Zm38.29,3a29.11,29.11,0,0,1-11.72-.35l-5.88-1.38a28.35,28.35,0,0,0-10.78-.43l-4.14.62a4.07,4.07,0,0,0,.28-1.45V21.45l3.37-.66A27.55,27.55,0,0,1,30.1,21L36,22.39a23.92,23.92,0,0,0,5.4.62,24.23,24.23,0,0,0,5.37-.61l2.2-.52v22.2h0a4,4,0,0,0,.93,2.55Zm5.69-1a2,2,0,1,1,2-2A2,2,0,0,1,53,46.11Z"/>
<path d="M45.44,25.16a24.09,24.09,0,0,1-9.67-.46l-7.06-1.54a25,25,0,0,0-8.8-.34l-1.64.23a1,1,0,0,0-.86,1V41.8a1,1,0,0,0,.35.76,1,1,0,0,0,.79.23,32.33,32.33,0,0,1,11.35.43L37,44.76a21.54,21.54,0,0,0,4.72.52,21.79,21.79,0,0,0,4.09-.39,1,1,0,0,0,.82-1V26.15a1,1,0,0,0-1.15-1Zm-.85,17.9a19.88,19.88,0,0,1-7.21-.25l-7.06-1.54a33.93,33.93,0,0,0-7.3-.79,33.58,33.58,0,0,0-3.61.19V24.91l.78-.11a23.92,23.92,0,0,1,4.06-.2,23,23,0,0,1,4,.51l7,1.54a26.16,26.16,0,0,0,9.28.64Z"/>
<path d="M32.78,27.68a5,5,0,0,0-4.77.87,5.8,5.8,0,0,0-2.37,4.89c.24,2.5,2.94,3.83,5.32,5l1,.5a4,4,0,0,0,1.83.46,4.38,4.38,0,0,0,2.3-.69,6.85,6.85,0,0,0,3.13-5.38C39.23,30,35.65,28.73,32.78,27.68ZM35.05,37a2.1,2.1,0,0,1-2.16.17l-1-.53c-1.92-.94-4.09-2-4.22-3.4a3.87,3.87,0,0,1,1.6-3.12,3.37,3.37,0,0,1,2-.73,2.67,2.67,0,0,1,.9.16c3.48,1.27,5.14,2.16,5.14,3.78A4.83,4.83,0,0,1,35.05,37Z"/>
</g>
</svg>